<?xml version="1.0"?>
<svg xmlns="http://www.w3.org/2000/svg" xmlns:xlink="http://www.w3.org/1999/xlink" version="1.1" id="Capa_1" x="0px" y="0px" width="512px" height="512px" viewBox="0 0 579.371 579.371" style="enable-background:new 0 0 579.371 579.371;" xml:space="preserve" class=""><g><g>
	<g>
		<path d="M286.705,140.354H286.6c0,0-14.86-16.878-27.827-4.991c-12.966,11.886-2.199,37.973,27.253,49.858l1.052,0.363    c29.452-11.886,40.431-38.336,27.464-50.222C301.575,123.477,286.705,140.354,286.705,140.354z" data-original="#000000" class="active-path" data-old_color="#000000" fill="#5E9A8E"/>
		<path d="M486.657,275.941c-62.854-17.299-95.156,36.328-96.888,53.636c-1.73,17.299-5.766,25.953-12.689,25.953    c-6.923,0-12.105-23.648,6.34-50.175c18.446-26.526,89.391-79.579,36.328-128.605c-54.21-45.557-105.531,22.49-95.156,50.748    c3.605,12.402,13.12,17.882,13.12,17.882s-12.26,15.854-9.085,20.043c3.175,4.179,25.379-18.025,26.239-20.043    c0.861-2.018,16.151-6.637,12.977-32.58c-3.175-25.952,49.018-19.899,26.526,20.474s-96.887,61.707-90.537,134.372    c0,0,5.766,101.496,169.543,76.701c0,0,118.221-19.029,104.958-145.331C540.867,309.391,533.37,290.936,486.657,275.941z" data-original="#000000" class="active-path" data-old_color="#000000" fill="#5E9A8E"/>
		<path d="M275.555,367.636c6.34-72.665-68.046-93.999-90.538-134.372s29.701-46.426,26.526-20.473    c-3.175,25.952,12.106,30.562,12.977,32.579c0.87,2.018,23.064,24.222,26.239,20.043s-9.084-20.043-9.084-20.043    s9.515-5.479,13.12-17.882c10.385-28.257-40.946-96.304-95.156-50.748c-53.053,49.018,17.882,102.069,36.328,128.605    c18.456,26.526,13.263,50.175,6.34,50.175s-10.958-8.654-12.689-25.953c-1.731-17.298-34.023-70.935-96.887-53.636    c-46.713,14.994-54.21,33.449-91.695,23.064c-13.244,126.312,104.977,145.341,104.977,145.341    C269.789,469.133,275.555,367.636,275.555,367.636z" data-original="#000000" class="active-path" data-old_color="#000000" fill="#5E9A8E"/>
	</g>
</g></g> </svg>
